<?xml version="1.0" standalone="yes"?>
<svg xmlns="http://www.w3.org/2000/svg" width="512" height="512">
<path style="fill:#0d1019; stroke:none;" d="M0 0L0 512L512 512L512 0L0 0z"/>
<path style="fill:#25d9b7; stroke:none;" d="M268 8L269 9L268 8M39 12L39 13L268 13L247 12L200 12L39 12M34.6667 13.3333L35.3333 13.6667L34.6667 13.3333z"/>
<path style="fill:#e6eef3; stroke:none;" d="M250 499L250 498C233.246 486.211 214.186 489 194 489L87 489C70.8319 489 39.9091 495.122 28.2137 481.96C20.6804 473.482 23 460.478 23 450L23 376L23 135L23 67C23 57.151 20.776 44.1564 24.9051 35.0008C33.5065 15.9286 66.8596 23 84 23C85.9092 44.7028 117.614 38 133 38L194 38C203.445 38 214.798 39.7072 224 37.4668C232.474 35.4037 231.678 24.3396 239.019 23.1481C251.231 21.1661 270.326 20.6144 278.606 31.0146C284.624 38.5725 283 48.9748 283 58L283 116L283 347C293.68 342.608 292.999 334.625 293 324L293 274L293 94C293 74.4153 299.444 40.3168 286.61 24.0008C273.09 6.81384 243.388 13 224 13L96 13C77.1544 13 53.2513 9.06189 35 13.7608C23.2812 16.7779 15.7086 26.3922 13.6157 38C9.01991 63.4901 13 93.0874 13 119L13 385L13 453C13 464.388 11.6256 477.175 18.6381 487C31.5533 505.094 60.6256 499 80 499L250 499z"/>
<path style="fill:#25d9b7; stroke:none;" d="M270.667 13.3333L271.333 13.6667L270.667 13.3333M31.6667 14.3333L32.3333 14.6667L31.6667 14.3333M274 14L275 15L274 14M29 15L30 16L29 15M276 15L277 16L276 15M27 16L28 17L27 16M278 16L279 17L278 16M26 17L27 18L26 17M24 18L25 19L24 18M281 18L282 19L281 18M23 19L24 20L23 19M282 19L283 20L282 19M22 20L23 21L22 20M283 20L284 21L283 20M21 21L22 22L21 21M284 21L285 22L284 21M290 21L291 22L290 21M20 22L21 23L20 22M285 22L286 23L285 22M19 23L20 24L19 23M36.6667 23.3333L37.3333 23.6667L36.6667 23.3333M83 23L84 24L83 23M128 23L129 27L130 27L128 23z"/>
<path style="fill:#0d1019; stroke:none;" d="M129 23C130.815 28.4682 137.152 27 142 27C153.72 27 165.317 26 177 26L177 23L129 23z"/>
<path style="fill:#25d9b7; stroke:none;" d="M184 23L183 25L184 23z"/>
<path style="fill:#0d1019; stroke:none;" d="M184 26L191 26C188.877 22.7362 186.123 22.7362 184 26z"/>
<path style="fill:#25d9b7; stroke:none;" d="M190 23L191 24L190 23M267.667 23.3333L268.333 23.6667L267.667 23.3333M286 23L287 24L286 23M34 24L35 25L34 24M177.333 24.6667L177.667 25.3333L177.333 24.6667M234 24L235 25L234 24M271 24L272 25L271 24M292 24L293 25L292 24M32 25L33 26L32 25M17 26L18 27L17 26M31 26L32 27L31 26M41 26L41 27C50.7948 27 72.1419 23.0467 80 29C80.6684 24.9451 73.791 26 71 26L41 26M164 26L164 27L177 27L164 26M184 26L184 27L190 27L184 26M238 26L238 27L265 27L238 26M274 26L275 27L274 26M288 26L289 27L288 26M37 27L38 28L37 27z"/>
<path style="fill:#e6eef3; stroke:none;" d="M131 296C109.913 261.83 71.076 216.655 84.0363 173C96.4559 131.165 148.363 112.321 183 140.468C201.659 155.63 207 175.015 207 198L208 198C224.361 175.157 240.197 151.937 256.424 129C263.35 119.211 274.87 107.556 278.351 96C279.835 91.0737 279 85.0931 279 80C279 66.5589 284.445 38.4835 271.985 29.6528C263.835 23.8774 247.592 27 238 27C231.7 48.2577 203.155 42 186 42L126 42C116.039 42 104.812 43.4421 95 41.6705C85.8781 40.0235 85.2882 30.8661 78.5818 27.6034C75.6858 26.1945 71.132 27 68 27C58.8382 27 44.3281 24.2711 36.0008 28.4568C26.6336 33.1652 27 42.9892 27 52L27 112L27 194C27 203.46 23.7733 220.018 27.6034 228.674C30.9181 236.166 47.2255 242.944 54 247.308C71.6576 258.681 89.1994 270.278 107 281.424C114.769 286.289 122.407 292.743 131 296z"/>
<path style="fill:#fcd769; stroke:none;" d="M84 27L85 28L84 27z"/>
<path style="fill:#25d9b7; stroke:none;" d="M268 27L269 28L268 27M16 28L17 29L16 28z"/>
<path style="fill:#fcd769; stroke:none;" d="M28 28L29 29L28 28M35 28L36 29L35 28z"/>
<path style="fill:#25d9b7; stroke:none;" d="M84 28L85 29L84 28M233.333 28.6667L233.667 29.3333L233.333 28.6667M237 28L238 29L237 28z"/>
<path style="fill:#fcd769; stroke:none;" d="M270 28L271 29L270 28z"/>
<path style="fill:#25d9b7; stroke:none;" d="M289 28L290 29L289 28M33 29L34 30L33 29z"/>
<path style="fill:#fcd769; stroke:none;" d="M237 29L238 30L237 29z"/>
<path style="fill:#25d9b7; stroke:none;" d="M272 29L273 30L272 29M15 30L16 31L15 30z"/>
<path style="fill:#fcd769; stroke:none;" d="M32 30L33 31L32 30z"/>
<path style="fill:#25d9b7; stroke:none;" d="M85 30L86 31L85 30M273 30L274 31L273 30M278 30L279 31L278 30M290 30L291 31L290 30M26 31L27 32L26 31z"/>
<path style="fill:#fcd769; stroke:none;" d="M31 31L32 32L31 31z"/>
<path style="fill:#25d9b7; stroke:none;" d="M81 31L82 32L81 31M232 31L233 32L232 31M236 31L237 32L236 31z"/>
<path style="fill:#fcd769; stroke:none;" d="M274 31L275 32L274 31z"/>
<path style="fill:#25d9b7; stroke:none;" d="M279 31L280 32L279 31M14.3333 32.6667L14.6667 33.3333L14.3333 32.6667M30 32L31 33L30 32M86 32L87 33L86 32M275 32L276 33L275 32M291.333 32.6667L291.667 33.3333L291.333 32.6667M25 33L26 34L25 33M29 33L30 34L29 33z"/>
<path style="fill:#fcd769; stroke:none;" d="M82 33L83 34L82 33z"/>
<path style="fill:#25d9b7; stroke:none;" d="M87 33L88 34L87 33M235 33L236 34L235 33M280 33L281 34L280 33M88 34L89 35L88 34M24 35L25 36L24 35M28 35L29 36L28 35M89 35L90 36L89 35M277 35L278 36L277 35M281 35L282 36L281 35M13 36L13 39L14 39L13 36M91 36L92 37L91 36M227 36L228 37L227 36M292 36L292 40L293 40L292 36M93.6667 37.3333L94.3333 37.6667L93.6667 37.3333M224 37L225 38L224 37z"/>
<path style="fill:#fcd769; stroke:none;" d="M232 37L233 38L232 37z"/>
<path style="fill:#25d9b7; stroke:none;" d="M23 38L23 474L24 474L24 165L24 76C24 65.1039 27.2077 48.0275 23 38M27 38L28 39L27 38M278 38L279 39L278 38M282 38L282 347L283 347L283 129L283 66L282 38z"/>
<path style="fill:#fcd769; stroke:none;" d="M27 39L28 40L27 39M88 39L89 40L88 39z"/>
<path style="fill:#25d9b7; stroke:none;" d="M229 39L230 40L229 39z"/>
<path style="fill:#fcd769; stroke:none;" d="M278 39L279 40L278 39M90 40L91 41L90 40z"/>
<path style="fill:#25d9b7; stroke:none;" d="M227 40L228 41L227 40z"/>
<path style="fill:#fcd769; stroke:none;" d="M292 40L293 41L292 40M93 41L94 42L93 41z"/>
<path style="fill:#25d9b7; stroke:none;" d="M94 41L95 42L94 41z"/>
<path style="fill:#fb4f42; stroke:none;" d="M95 41L96 42L95 41z"/>
<path style="fill:#25d9b7; stroke:none;" d="M223 41L224 42L223 41z"/>
<path style="fill:#fcd769; stroke:none;" d="M224 41L225 42L224 41M278 96L279 97L278 96z"/>
<path style="fill:#25d9b7; stroke:none;" d="M278 97L279 98L278 97z"/>
<path style="fill:#fcd769; stroke:none;" d="M277 98L278 99L277 98z"/>
<path style="fill:#fb4f42; stroke:none;" d="M278 98L278 120L279 120L278 98z"/>
<path style="fill:#25d9b7; stroke:none;" d="M277 99L230.72 165L206 199C207.009 217.615 193.019 236.627 186 253L187 253C211.199 217.426 236.443 182.564 260.656 147C270.146 133.061 284.666 117.269 277 99z"/>
<path style="fill:#fcd769; stroke:none;" d="M275 101L276 102L275 101M273 104L274 105L273 104M270 108L271 109L270 108M268 111L269 112L268 111M263 118L264 119L263 118M261 121L262 122L261 121M278 121L193.28 243L164.656 286L149 309L257 378C259.53 370.583 263.681 363.709 269.09 358.015C272.022 354.928 277.48 352.109 278.682 347.826C282.871 332.908 279 311.532 279 296L279 183L279 141C279 134.846 280.395 126.707 278 121M134 127L135 128L134 127z"/>
<path style="fill:#25d9b7; stroke:none;" d="M135.667 127.333L136.333 127.667L135.667 127.333z"/>
<path style="fill:#0d1019; stroke:none;" d="M137 127.428C128.452 128.653 120.505 131.101 113 135.428C62.1847 164.724 85.8751 224.125 109.2 263C116.816 275.695 125.207 287.894 133.721 300C135.909 303.111 140.327 311.68 144.924 311.079C148.927 310.555 152.029 303.91 154.151 301C162.018 290.211 169.768 279.354 176.808 268C199.557 231.31 227.129 174.97 183.999 141.015C178.255 136.492 171.952 132.695 165 130.356C156.156 127.379 146.273 126.1 137 127.428z"/>
<path style="fill:#25d9b7; stroke:none;" d="M152.667 127.333L153.333 127.667L152.667 127.333z"/>
<path style="fill:#fcd769; stroke:none;" d="M154 127L155 128L154 127M129 128L130 129L129 128z"/>
<path style="fill:#25d9b7; stroke:none;" d="M130 128L131 129L130 128M158 128L159 129L158 128z"/>
<path style="fill:#fcd769; stroke:none;" d="M256 128L257 129L256 128z"/>
<path style="fill:#25d9b7; stroke:none;" d="M126 129L127 130L126 129M162 129L163 130L162 129M123 130L124 131L123 130z"/>
<path style="fill:#fb4f42; stroke:none;" d="M144 307C158.33 296.008 168.797 274.339 178 259C188.012 242.313 197.344 224.065 201.765 205C203.963 195.52 204.378 185.499 202.101 176C186.282 110.009 85.0293 120.529 85.0293 189C85.0293 211.031 96.3201 232.06 106.255 251C116.537 270.6 129.515 290.261 144 307z"/>
<path style="fill:#25d9b7; stroke:none;" d="M165 130L166 131L165 130z"/>
<path style="fill:#fcd769; stroke:none;" d="M120 131L121 132L120 131M168 131L169 132L168 131M254 131L255 132L254 131z"/>
<path style="fill:#25d9b7; stroke:none;" d="M118 132L119 133L118 132M170 132L171 133L170 132M116 133L117 134L116 133M172 133L173 134L172 133M114 134L115 135L114 134M174 134L175 135L174 134z"/>
<path style="fill:#fcd769; stroke:none;" d="M112 135L113 136L112 135z"/>
<path style="fill:#fb4f42; stroke:none;" d="M111 136L112 137L111 136z"/>
<path style="fill:#25d9b7; stroke:none;" d="M177 136L178 137L177 136M109 137L110 138L109 137z"/>
<path style="fill:#fcd769; stroke:none;" d="M179 137L180 138L179 137z"/>
<path style="fill:#25d9b7; stroke:none;" d="M180 138L181 139L180 138z"/>
<path style="fill:#fcd769; stroke:none;" d="M249 138L250 139L249 138z"/>
<path style="fill:#25d9b7; stroke:none;" d="M105 140L106 141L105 140z"/>
<path style="fill:#fcd769; stroke:none;" d="M183 140L184 141L183 140z"/>
<path style="fill:#fb4f42; stroke:none;" d="M104 141L105 142L104 141z"/>
<path style="fill:#25d9b7; stroke:none;" d="M184 141L185 142L184 141z"/>
<path style="fill:#fcd769; stroke:none;" d="M247 141L248 142L247 141z"/>
<path style="fill:#25d9b7; stroke:none;" d="M185 142L186 143L185 142z"/>
<path style="fill:#0d1019; stroke:none;" d="M136 148.518C88.0453 158.749 105.552 232.425 153 221.985C200.667 211.496 183.398 138.405 136 148.518z"/>
<path style="fill:#25d9b7; stroke:none;" d="M191 148L192 149L191 148z"/>
<path style="fill:#fcd769; stroke:none;" d="M242 148L243 149L242 148z"/>
<path style="fill:#25d9b7; stroke:none;" d="M192 149L193 150L192 149M95 150L96 151L95 150z"/>
<path style="fill:#fcd769; stroke:none;" d="M193 150L194 151L193 150z"/>
<path style="fill:#25d9b7; stroke:none;" d="M138 151L138 152L141 152L138 151z"/>
<path style="fill:#e6eef3; stroke:none;" d="M141 151.44C96.4315 158.24 105.319 225.141 150 218.7C192.161 212.622 182.855 145.053 141 151.44z"/>
<path style="fill:#25d9b7; stroke:none;" d="M148.667 151.333L149.333 151.667L148.667 151.333z"/>
<path style="fill:#fcd769; stroke:none;" d="M240 151L241 152L240 151z"/>
<path style="fill:#25d9b7; stroke:none;" d="M134.667 152.333L135.333 152.667L134.667 152.333M153.667 152.333L154.333 152.667L153.667 152.333M131.667 153.333L132.333 153.667L131.667 153.333M156 153L157 154L156 153M195 153L196 154L195 153M92 154L93 155L92 154M129 154L130 155L129 154M159 154L160 155L159 154z"/>
<path style="fill:#fcd769; stroke:none;" d="M196 154L197 155L196 154z"/>
<path style="fill:#25d9b7; stroke:none;" d="M127 155L128 156L127 155M162 156L163 157L162 156M197 156L198 157L197 156z"/>
<path style="fill:#fcd769; stroke:none;" d="M90 157L91 158L90 157z"/>
<path style="fill:#25d9b7; stroke:none;" d="M124 157L125 158L124 157M123 158L124 159L123 158M165 158L166 159L165 158z"/>
<path style="fill:#fcd769; stroke:none;" d="M235 158L236 159L235 158z"/>
<path style="fill:#25d9b7; stroke:none;" d="M89 159L90 160L89 159z"/>
<path style="fill:#fcd769; stroke:none;" d="M199 159L200 160L199 159z"/>
<path style="fill:#25d9b7; stroke:none;" d="M88 161L89 162L88 161M200 161L201 162L200 161z"/>
<path style="fill:#fcd769; stroke:none;" d="M233 161L234 162L233 161z"/>
<path style="fill:#25d9b7; stroke:none;" d="M87 163L88 164L87 163z"/>
<path style="fill:#fcd769; stroke:none;" d="M170 163L171 164L170 163z"/>
<path style="fill:#25d9b7; stroke:none;" d="M201 163L202 164L201 163M117 164L118 165L117 164M171 164L172 165L171 164M86 165L87 166L86 165M116 165L117 166L116 165z"/>
<path style="fill:#fcd769; stroke:none;" d="M202 165L203 166L202 165M230 165L231 166L230 165z"/>
<path style="fill:#fb4f42; stroke:none;" d="M202 166L203 167L202 166z"/>
<path style="fill:#25d9b7; stroke:none;" d="M115 167L116 168L115 167M173 167L174 168L173 167M85 168L86 169L85 168M203 168L204 169L203 168z"/>
<path style="fill:#fcd769; stroke:none;" d="M228 168L229 169L228 168M174 169L175 170L174 169z"/>
<path style="fill:#25d9b7; stroke:none;" d="M113 170L114 171L113 170M84 171L85 172L84 171z"/>
<path style="fill:#fcd769; stroke:none;" d="M175 171L176 172L175 171z"/>
<path style="fill:#25d9b7; stroke:none;" d="M204 171L205 172L204 171z"/>
<path style="fill:#fcd769; stroke:none;" d="M226 171L227 172L226 171z"/>
<path style="fill:#25d9b7; stroke:none;" d="M112 173L113 174L112 173M176 173L177 174L176 173z"/>
<path style="fill:#fcd769; stroke:none;" d="M83 174L84 175L83 174z"/>
<path style="fill:#25d9b7; stroke:none;" d="M83 175L84 176L83 175M205 175L206 176L205 175z"/>
<path style="fill:#fcd769; stroke:none;" d="M223 175L224 176L223 175z"/>
<path style="fill:#25d9b7; stroke:none;" d="M111 176L112 177L111 176M177 176L178 177L177 176z"/>
<path style="fill:#fcd769; stroke:none;" d="M177 177L178 178L177 177M221 178L222 179L221 178M82 179L83 180L82 179z"/>
<path style="fill:#25d9b7; stroke:none;" d="M82 180L83 181L82 180M110 180L110 190L111 190L110 180M206.333 180.667L206.667 181.333L206.333 180.667M178 181L178 185L179 185L178 181z"/>
<path style="fill:#fcd769; stroke:none;" d="M219 181L220 182L219 181z"/>
<path style="fill:#fb4f42; stroke:none;" d="M206 182L207 183L206 182z"/>
<path style="fill:#fcd769; stroke:none;" d="M178 185L179 186L178 185M216 185L217 186L216 185z"/>
<path style="fill:#25d9b7; stroke:none;" d="M178 186L178 189L179 189L178 186z"/>
<path style="fill:#fcd769; stroke:none;" d="M214 188L215 189L214 188z"/>
<path style="fill:#25d9b7; stroke:none;" d="M111.333 193.667L111.667 194.333L111.333 193.667M177 193L178 194L177 193z"/>
<path style="fill:#fcd769; stroke:none;" d="M209 195L210 196L209 195M176 196L177 197L176 196z"/>
<path style="fill:#25d9b7; stroke:none;" d="M206.333 196.667L206.667 197.333L206.333 196.667z"/>
<path style="fill:#fb4f42; stroke:none;" d="M82 197L83 198L82 197z"/>
<path style="fill:#25d9b7; stroke:none;" d="M112 197L113 198L112 197M82 198L83 199L82 198z"/>
<path style="fill:#fcd769; stroke:none;" d="M206.667 198.333L207.333 198.667L206.667 198.333M82 199L83 200L82 199z"/>
<path style="fill:#25d9b7; stroke:none;" d="M113 199L114 200L113 199M175 199L176 200L175 199z"/>
<path style="fill:#fb4f42; stroke:none;" d="M206 200L207 201L206 200z"/>
<path style="fill:#25d9b7; stroke:none;" d="M114 201L115 202L114 201M174 201L175 202L174 201z"/>
<path style="fill:#fb4f42; stroke:none;" d="M83 203L84 204L83 203z"/>
<path style="fill:#25d9b7; stroke:none;" d="M115 203L116 204L115 203M83 204L84 205L83 204M172 204L173 205L172 204z"/>
<path style="fill:#fb4f42; stroke:none;" d="M205 205L206 206L205 205z"/>
<path style="fill:#25d9b7; stroke:none;" d="M118 207L119 208L118 207z"/>
<path style="fill:#fb4f42; stroke:none;" d="M170 207L171 208L170 207z"/>
<path style="fill:#25d9b7; stroke:none;" d="M84 208L85 209L84 208M119 208L120 209L119 208M169 208L170 209L169 208M120 209L121 210L120 209M168 209L169 210L168 209z"/>
<path style="fill:#fb4f42; stroke:none;" d="M204 209L205 210L204 209z"/>
<path style="fill:#25d9b7; stroke:none;" d="M121 210L122 211L121 210M167 210L168 211L167 210M122 211L123 212L122 211M85 212L86 213L85 212z"/>
<path style="fill:#fb4f42; stroke:none;" d="M203 212L204 213L203 212z"/>
<path style="fill:#fcd769; stroke:none;" d="M125 213L126 214L125 213z"/>
<path style="fill:#25d9b7; stroke:none;" d="M163 213L164 214L163 213M86 215L87 216L86 215M128 215L129 216L128 215z"/>
<path style="fill:#fb4f42; stroke:none;" d="M160 215L161 216L160 215z"/>
<path style="fill:#25d9b7; stroke:none;" d="M130 216L131 217L130 216z"/>
<path style="fill:#fb4f42; stroke:none;" d="M158 216L159 217L158 216M202 216L203 217L202 216z"/>
<path style="fill:#fcd769; stroke:none;" d="M133 217L134 218L133 217z"/>
<path style="fill:#25d9b7; stroke:none;" d="M155 217L156 218L155 217M87 218L88 219L87 218M136 218L137 219L136 218z"/>
<path style="fill:#fcd769; stroke:none;" d="M137 218L138 219L137 218M151 218L152 219L151 218z"/>
<path style="fill:#25d9b7; stroke:none;" d="M152 218L153 219L152 218z"/>
<path style="fill:#fb4f42; stroke:none;" d="M142 219L143 220L142 219z"/>
<path style="fill:#25d9b7; stroke:none;" d="M143 219L143 220L146 220L143 219z"/>
<path style="fill:#fb4f42; stroke:none;" d="M146 219L147 220L146 219z"/>
<path style="fill:#25d9b7; stroke:none;" d="M88 221L89 222L88 221z"/>
<path style="fill:#fb4f42; stroke:none;" d="M200 221L201 222L200 221M89 223L90 224L89 223M199 224L200 225L199 224z"/>
<path style="fill:#25d9b7; stroke:none;" d="M90 226L91 227L90 226M91 228L92 229L91 228z"/>
<path style="fill:#fb4f42; stroke:none;" d="M197 229L198 230L197 229M27 230L27 247L28 247L27 230z"/>
<path style="fill:#fcd769; stroke:none;" d="M28 230L29 231L28 230z"/>
<path style="fill:#25d9b7; stroke:none;" d="M28 231L28.6034 246.674L38 254.053L61 268C54.0101 287.092 34.4952 301.593 28.6489 321C26.5816 327.863 28.5043 335.917 27.8302 343C25.2293 370.331 27 398.528 27 426L27 464C27.0004 470.904 27.0149 477.752 33.0941 482.348C38.4837 486.423 45.6262 486 52 486L89 486L238 486C235.846 471.427 216.351 475.031 212.532 459C207.822 439.23 212.706 414.872 228.001 401.174C238.589 391.691 251.668 392.044 256 377C227.855 361.331 200.864 342.121 174 324.333C167.309 319.902 151.708 305.052 145 313L144 313L132 296L104 279.053L52 245.576L28 231z"/>
<path style="fill:#fb4f42; stroke:none;" d="M196 231L197 232L196 231z"/>
<path style="fill:#fcd769; stroke:none;" d="M31 232L32 233L31 232M93 233L94 234L93 233z"/>
<path style="fill:#fb4f42; stroke:none;" d="M195 233L196 234L195 233z"/>
<path style="fill:#fcd769; stroke:none;" d="M34 234L35 235L34 234z"/>
<path style="fill:#25d9b7; stroke:none;" d="M94 235L95 236L94 235M95 237L96 238L95 237z"/>
<path style="fill:#fcd769; stroke:none;" d="M42 239L43 240L42 239z"/>
<path style="fill:#25d9b7; stroke:none;" d="M96 239L97 240L96 239z"/>
<path style="fill:#fcd769; stroke:none;" d="M45 241L46 242L45 241z"/>
<path style="fill:#25d9b7; stroke:none;" d="M97 241L98 242L97 241z"/>
<path style="fill:#fcd769; stroke:none;" d="M48 243L49 244L48 243z"/>
<path style="fill:#25d9b7; stroke:none;" d="M98 243L99 244L98 243z"/>
<path style="fill:#fcd769; stroke:none;" d="M51 245L52 246L51 245z"/>
<path style="fill:#25d9b7; stroke:none;" d="M99 245L100 246L99 245z"/>
<path style="fill:#fb4f42; stroke:none;" d="M189 246L190 247L189 246z"/>
<path style="fill:#fcd769; stroke:none;" d="M27 247L27 322L28 322L49.6921 288L61 268L27 247z"/>
<path style="fill:#25d9b7; stroke:none;" d="M100 247L101 248L100 247M101 249L102 250L101 249z"/>
<path style="fill:#fcd769; stroke:none;" d="M59 250L60 251L59 250M102 251L103 252L102 251z"/>
<path style="fill:#fb4f42; stroke:none;" d="M186 251L187 252L186 251z"/>
<path style="fill:#fcd769; stroke:none;" d="M62 252L63 253L62 252z"/>
<path style="fill:#fb4f42; stroke:none;" d="M185 253L186 254L185 253z"/>
<path style="fill:#fcd769; stroke:none;" d="M65 254L66 255L65 254z"/>
<path style="fill:#25d9b7; stroke:none;" d="M185 254L186 255L185 254z"/>
<path style="fill:#fb4f42; stroke:none;" d="M184 255L185 256L184 255z"/>
<path style="fill:#fcd769; stroke:none;" d="M68 256L69 257L68 256z"/>
<path style="fill:#25d9b7; stroke:none;" d="M105 256L106 257L105 256M183 257L184 258L183 257M106 258L107 259L106 258z"/>
<path style="fill:#fb4f42; stroke:none;" d="M182 258L183 259L182 258z"/>
<path style="fill:#fcd769; stroke:none;" d="M73 259L74 260L73 259z"/>
<path style="fill:#25d9b7; stroke:none;" d="M181 260L182 261L181 260z"/>
<path style="fill:#fcd769; stroke:none;" d="M76 261L77 262L76 261z"/>
<path style="fill:#fb4f42; stroke:none;" d="M108 261L109 262L108 261z"/>
<path style="fill:#fcd769; stroke:none;" d="M79 263L80 264L79 263z"/>
<path style="fill:#25d9b7; stroke:none;" d="M109 263L110 264L109 263z"/>
<path style="fill:#fb4f42; stroke:none;" d="M179 263L180 264L179 263z"/>
<path style="fill:#fcd769; stroke:none;" d="M82 265L83 266L82 265z"/>
<path style="fill:#25d9b7; stroke:none;" d="M111 266L112 267L111 266z"/>
<path style="fill:#fb4f42; stroke:none;" d="M177 266L178 267L177 266z"/>
<path style="fill:#fcd769; stroke:none;" d="M112 268L113 269L112 268M90 270L91 271L90 270z"/>
<path style="fill:#25d9b7; stroke:none;" d="M114 271L115 272L114 271z"/>
<path style="fill:#fb4f42; stroke:none;" d="M174 271L175 272L174 271z"/>
<path style="fill:#fcd769; stroke:none;" d="M93 272L94 273L93 272M96 274L97 275L96 274z"/>
<path style="fill:#25d9b7; stroke:none;" d="M116 274L117 275L116 274z"/>
<path style="fill:#fb4f42; stroke:none;" d="M172 274L173 275L172 274z"/>
<path style="fill:#fcd769; stroke:none;" d="M99 276L100 277L99 276M117 276L118 277L117 276z"/>
<path style="fill:#25d9b7; stroke:none;" d="M118 277L119 278L118 277z"/>
<path style="fill:#fb4f42; stroke:none;" d="M170 277L171 278L170 277z"/>
<path style="fill:#fcd769; stroke:none;" d="M119 279L120 280L119 279z"/>
<path style="fill:#25d9b7; stroke:none;" d="M120 280L121 281L120 280z"/>
<path style="fill:#fb4f42; stroke:none;" d="M168 280L169 281L168 280z"/>
<path style="fill:#fcd769; stroke:none;" d="M107 281L108 282L107 281M121 282L122 283L121 282M110 283L111 284L110 283z"/>
<path style="fill:#25d9b7; stroke:none;" d="M122 283L123 284L122 283z"/>
<path style="fill:#fb4f42; stroke:none;" d="M166 283L167 284L166 283z"/>
<path style="fill:#fcd769; stroke:none;" d="M113 285L114 286L113 285z"/>
<path style="fill:#25d9b7; stroke:none;" d="M124 286L125 287L124 286z"/>
<path style="fill:#fb4f42; stroke:none;" d="M164 286L165 287L164 286z"/>
<path style="fill:#25d9b7; stroke:none;" d="M126 289L127 290L126 289z"/>
<path style="fill:#fb4f42; stroke:none;" d="M162 289L163 290L162 289z"/>
<path style="fill:#fcd769; stroke:none;" d="M121 290L122 291L121 290z"/>
<path style="fill:#fb4f42; stroke:none;" d="M161 290L162 291L161 290z"/>
<path style="fill:#fcd769; stroke:none;" d="M124 292L125 293L124 292M128 292L129 293L128 292z"/>
<path style="fill:#25d9b7; stroke:none;" d="M129 293L130 294L129 293z"/>
<path style="fill:#fb4f42; stroke:none;" d="M159 293L160 294L159 293z"/>
<path style="fill:#fcd769; stroke:none;" d="M127 294L128 295L127 294M130 296L131 297L130 296z"/>
<path style="fill:#fb4f42; stroke:none;" d="M157 296L158 297L157 296M156 297L157 298L156 297M132 298L133 299L132 298M133 299L134 300L133 299M154 300L155 301L154 300M153 301L154 302L153 301M135 302L136 303L135 302M136 303L137 304L136 303M151 304L152 305L151 304M138 306L139 307L138 306M139 307L140 308L139 307M148 308L149 309L148 308M144 312L145 313L144 312M307 342L374 342C374 336.813 375.972 326.49 371.566 322.742C368.238 319.911 362.039 321 358 321L323 321C318.703 321 311.78 319.778 308.603 323.434C305.154 327.402 307 337.051 307 342M27 322L27 346L28 346L27 322z"/>
<path style="fill:#fcd769; stroke:none;" d="M357 324L356 325L356 326L357 327L358 327L359 326L359 325L357 324M322 325L322 326L327 327L329 339C327.475 332.596 329.276 327.357 322 325z"/>
<path style="fill:#e6eef3; stroke:none;" d="M323 325L323 326C328.8 327.761 327.999 332.795 328 338L329 338L329 326L334 326L323 325M357 325L358 326L357 325z"/>
<path style="fill:#fcd769; stroke:none;" d="M329 326L329 327L333 327L329 326M336 328L336 329L340 329L336 328M357 328L356 338L357 338L357 328M334 329L336 331L334 329z"/>
<path style="fill:#e6eef3; stroke:none;" d="M335 329L335 330L341 333C331.934 333.298 334.868 338.028 342 339C341.995 332.821 341.993 329.23 335 329M345 329L345 338L349 335L350 335L353 338L350 334L350 333L354 329L350 332L349 332L345 329M357 329L357 339L358 339L357 329z"/>
<path style="fill:#fcd769; stroke:none;" d="M340.333 331.667L340.667 332.333L340.333 331.667M342 331L342 338L343 338L342 331M346 331L347 332L346 331M347 332L348 333L347 332M351 332L352 333L351 332M350 333L351 334L350 333M292 334L291 344L292 344L292 334M336 334L335 337L336 337L336 334z"/>
<path style="fill:#fb4f42; stroke:none;" d="M336 337L341 336C338.587 334.338 337.608 334.556 336 337z"/>
<path style="fill:#fcd769; stroke:none;" d="M340 334L341 335L340 334M349 335L350 336L349 335M350 336L351 337L350 336M337 337L338 338L337 337M347 337L348 338L347 337M351 337L352 338L351 337M353 337L352 339L354 339L353 337M335 338L336 339L335 338M338 338L339 339L338 338M345.667 338.333L346.333 338.667L345.667 338.333z"/>
<path style="fill:#25d9b7; stroke:none;" d="M292 343L293 344L292 343M288.667 344.333L289.333 344.667L288.667 344.333M286 345L287 346L286 345z"/>
<path style="fill:#fb4f42; stroke:none;" d="M303 345L303 346L382 346L357 345L303 345z"/>
<path style="fill:#25d9b7; stroke:none;" d="M284 346L285 347L284 346z"/>
<path style="fill:#fb4f42; stroke:none;" d="M296 346L297 347L296 346z"/>
<path style="fill:#fcd769; stroke:none;" d="M235 473C235.021 441.815 273.105 424.967 293.61 451.001C298.582 457.314 300.38 465.16 301 473L423 473C423.362 429.242 487.082 427.001 489 471C500.957 464.793 500.753 451.982 501 440C495.764 439.986 490.241 439.919 486.394 435.775C479.308 428.142 486.213 418.979 495 418C485.045 396.665 452.051 404.088 435.09 393.143C419.54 383.109 413.976 360.645 398 350.559C388.635 344.648 377.561 346 367 346L317 346C303.948 346 291.386 345.538 280 353.105C265.185 362.95 264.923 379.504 253.61 390.697C249.631 394.633 241.952 395.569 237 398.312C226.726 404.005 218.8 414.474 216.289 426C212.445 443.648 211.719 470.967 235 473z"/>
<path style="fill:#fb4f42; stroke:none;" d="M388 346L389 347L388 346z"/>
<path style="fill:#25d9b7; stroke:none;" d="M399 346L400 347L399 346z"/>
<path style="fill:#fb4f42; stroke:none;" d="M292 347L293 348L292 347M391 347L392 348L391 347M289 348L290 349L289 348M277 350L278 351L277 350M400 352L401 353L400 352M273 353L274 354L273 353M279 353L280 354L279 353M272 354L273 355L272 354M271 355L272 356L271 355M298.667 355.333L299.333 355.667L298.667 355.333z"/>
<path style="fill:#0d1019; stroke:none;" d="M300 355.439C283.729 358.001 271.002 370.007 267.236 386C265.751 392.307 264.832 399.782 270.214 404.581C274.312 408.235 279.873 407.998 285 408C296.286 408.004 308.852 409.554 319.999 407.786C332.903 405.74 328 380.616 328 371C328 366.99 328.839 361.644 326.258 358.228C321.918 352.486 306.335 354.441 300 355.439z"/>
<path style="fill:#fb4f42; stroke:none;" d="M323 355L324 356L323 355M344 355L345 356L344 355z"/>
<path style="fill:#0d1019; stroke:none;" d="M345.044 355.742C335.674 359.56 339.997 385.583 340 394C340.001 397.788 339.401 402.482 342.434 405.347C346.536 409.224 353.857 408 359 408L394 408C399.717 408 406.691 409.031 411.985 406.427C428.544 398.283 411.719 379.662 405.424 371C393.672 354.833 381.417 355 363 355C357.615 355 350.108 353.679 345.044 355.742z"/>
<path style="fill:#fb4f42; stroke:none;" d="M385 355L386 356L385 355M275 356L276 357L275 356M294 356L295 357L294 356M389 356L390 357L389 356M274 357L275 358L274 357M391 357L392 358L391 357M273 358L274 359L273 358M289 358L290 359L289 358z"/>
<path style="fill:#25d9b7; stroke:none;" d="M301 358L301 359L305 359L301 358z"/>
<path style="fill:#fcd769; stroke:none;" d="M305 358L306 359L305 358z"/>
<path style="fill:#e6eef3; stroke:none;" d="M306 358.424C289.967 360.555 275.706 368.213 271.159 385C269.858 389.805 268.487 397.62 272.434 401.566C275.621 404.754 280.897 404 285 404C296.045 404.001 309.113 405.933 319.941 403.772C326.614 402.44 324 389.101 324 384C324 378.578 326.576 363.799 322.397 359.858C318.861 356.524 310.352 357.846 306 358.424z"/>
<path style="fill:#25d9b7; stroke:none;" d="M320.667 358.333L321.333 358.667L320.667 358.333M346 358L347 359L346 358z"/>
<path style="fill:#e6eef3; stroke:none;" d="M347.148 358.742C340.434 361.78 344 386.442 344 393C344 395.793 343.092 400.832 345.603 402.821C348.975 405.491 356.947 404 361 404L396 404C400.492 404 406.827 405.097 410.892 402.821C423.11 395.981 407.879 380.469 403.151 374C392.068 358.834 380.664 358 363 358C358.321 358 351.498 356.774 347.148 358.742z"/>
<path style="fill:#fcd769; stroke:none;" d="M380.667 358.333L381.333 358.667L380.667 358.333z"/>
<path style="fill:#25d9b7; stroke:none;" d="M382.667 358.333L383.333 358.667L382.667 358.333z"/>
<path style="fill:#fb4f42; stroke:none;" d="M393 358L394 359L393 358M406 358L407 359L406 358M267 359L268 360L267 359M272 359L273 360L272 359M287 359L288 360L287 359z"/>
<path style="fill:#25d9b7; stroke:none;" d="M297 359L298 360L297 359z"/>
<path style="fill:#fb4f42; stroke:none;" d="M327 359L328 360L327 359M340 359L341 360L340 359z"/>
<path style="fill:#fcd769; stroke:none;" d="M386 359L387 360L386 359z"/>
<path style="fill:#fb4f42; stroke:none;" d="M387 359L388 360L387 359M266 360L267 361L266 360M271 360L272 361L271 360z"/>
<path style="fill:#fcd769; stroke:none;" d="M294 360L295 361L294 360z"/>
<path style="fill:#25d9b7; stroke:none;" d="M389 360L390 361L389 360z"/>
<path style="fill:#fb4f42; stroke:none;" d="M270 361L271 362L270 361z"/>
<path style="fill:#25d9b7; stroke:none;" d="M291 361L292 362L291 361M324 361L325 362L324 361M343 361L344 362L343 361M391 361L392 362L391 361z"/>
<path style="fill:#fb4f42; stroke:none;" d="M397 361L398 362L397 361M269 362L270 363L269 362z"/>
<path style="fill:#25d9b7; stroke:none;" d="M289 362L290 363L289 362z"/>
<path style="fill:#fcd769; stroke:none;" d="M324 362L324 400L325 400C325 389.089 328.211 372.036 324 362M343 362L343 400L344 400C344 389.089 347.211 372.036 343 362z"/>
<path style="fill:#fb4f42; stroke:none;" d="M398 362L399 363L398 362M281 363L282 364L281 363z"/>
<path style="fill:#25d9b7; stroke:none;" d="M287 363L288 364L287 363M394 363L395 364L394 363z"/>
<path style="fill:#fb4f42; stroke:none;" d="M399 363L400 364L399 363M410 363L411 364L410 363M263 364L264 365L263 364z"/>
<path style="fill:#25d9b7; stroke:none;" d="M395 364L396 365L395 364z"/>
<path style="fill:#fb4f42; stroke:none;" d="M400 364L401 365L400 364M284 365L285 366L284 365z"/>
<path style="fill:#25d9b7; stroke:none;" d="M396 365L397 366L396 365z"/>
<path style="fill:#fb4f42; stroke:none;" d="M262 366L263 367L262 366M266 366L267 367L266 366z"/>
<path style="fill:#25d9b7; stroke:none;" d="M283 366L284 367L283 366M397 366L398 367L397 366z"/>
<path style="fill:#fcd769; stroke:none;" d="M282 367L283 368L282 367z"/>
<path style="fill:#fb4f42; stroke:none;" d="M398 367L399 368L398 367M413 367L414 368L413 367M403 368L404 369L403 368M414 368L415 369L414 368M260 369L261 370L260 369M274 370L275 371L274 370z"/>
<path style="fill:#25d9b7; stroke:none;" d="M400 370L401 371L400 370z"/>
<path style="fill:#fb4f42; stroke:none;" d="M259 371L260 372L259 371z"/>
<path style="fill:#fcd769; stroke:none;" d="M278 371L279 372L278 371z"/>
<path style="fill:#fb4f42; stroke:none;" d="M405 371L406 372L405 371z"/>
<path style="fill:#25d9b7; stroke:none;" d="M277 372L278 373L277 372z"/>
<path style="fill:#fb4f42; stroke:none;" d="M417 372L418 373L417 372M258 373L259 374L258 373M272 373L273 374L272 373z"/>
<path style="fill:#fcd769; stroke:none;" d="M402 373L403 374L402 373z"/>
<path style="fill:#fb4f42; stroke:none;" d="M418 373L419 374L418 373z"/>
<path style="fill:#25d9b7; stroke:none;" d="M403 374L404 375L403 374z"/>
<path style="fill:#fcd769; stroke:none;" d="M275 375L276 376L275 375z"/>
<path style="fill:#fb4f42; stroke:none;" d="M408 375L409 376L408 375M270 376L271 377L270 376z"/>
<path style="fill:#25d9b7; stroke:none;" d="M405 377L406 378L405 377z"/>
<path style="fill:#fb4f42; stroke:none;" d="M421 377L422 378L421 377z"/>
<path style="fill:#25d9b7; stroke:none;" d="M273 378L274 379L273 378z"/>
<path style="fill:#fb4f42; stroke:none;" d="M406 378L407 379L406 378M255 379L256 380L255 379M411 379L412 380L411 379M272 380L273 381L272 380M254 381L255 382L254 381M268 381L269 382L268 381z"/>
<path style="fill:#25d9b7; stroke:none;" d="M408 381L409 382L408 381z"/>
<path style="fill:#fb4f42; stroke:none;" d="M413 382L414 383L413 382M425 382L426 383L425 382M253 383L254 384L253 383z"/>
<path style="fill:#25d9b7; stroke:none;" d="M271 383L272 384L271 383z"/>
<path style="fill:#fb4f42; stroke:none;" d="M257 384L258 385L257 384M267 384L268 385L267 384z"/>
<path style="fill:#fcd769; stroke:none;" d="M410 384L411 385L410 384z"/>
<path style="fill:#fb4f42; stroke:none;" d="M252 385L253 386L252 385z"/>
<path style="fill:#25d9b7; stroke:none;" d="M411 385L412 386L411 385z"/>
<path style="fill:#fb4f42; stroke:none;" d="M256 386L257 387L256 386z"/>
<path style="fill:#25d9b7; stroke:none;" d="M270 386L271 387L270 386z"/>
<path style="fill:#fb4f42; stroke:none;" d="M416 386L417 387L416 386M428 386L429 387L428 386z"/>
<path style="fill:#fcd769; stroke:none;" d="M270 387L271 388L270 387z"/>
<path style="fill:#fb4f42; stroke:none;" d="M429 387L430 388L429 387M255 388L256 389L255 388M266.333 388.667L266.667 389.333L266.333 388.667z"/>
<path style="fill:#25d9b7; stroke:none;" d="M413 388L414 389L413 388M436 389L437 390L436 389z"/>
<path style="fill:#fb4f42; stroke:none;" d="M254 390L255 391L254 390M418 390L419 391L418 390M269 391L270 392L269 391M432 391L433 392L432 391z"/>
<path style="fill:#25d9b7; stroke:none;" d="M269 392L269 397L270 397L269 392M415 392L416 393L415 392z"/>
<path style="fill:#fb4f42; stroke:none;" d="M433 392L434 393L433 392M248 393L249 394L248 393M434 393L435 394L434 393M437 394L438 395L437 394M242 395L243 396L242 395M442 395L443 396L442 395M240 396L241 397L240 396z"/>
<path style="fill:#fcd769; stroke:none;" d="M415 396L416 397L415 396z"/>
<path style="fill:#fb4f42; stroke:none;" d="M445 396L446 397L445 396z"/>
<path style="fill:#25d9b7; stroke:none;" d="M462 396L463 397L462 396z"/>
<path style="fill:#fb4f42; stroke:none;" d="M238 397L239 398L238 397z"/>
<path style="fill:#25d9b7; stroke:none;" d="M415 397L416 398L415 397z"/>
<path style="fill:#fb4f42; stroke:none;" d="M449 397L450 398L449 397M236 398L237 399L236 398M453 398L454 399L453 398M266 399L267 400L266 399z"/>
<path style="fill:#25d9b7; stroke:none;" d="M270 399L271 400L270 399M414 399L415 400L414 399z"/>
<path style="fill:#fb4f42; stroke:none;" d="M418 399L419 400L418 399M457 399L458 400L457 399M233 400L234 401L233 400z"/>
<path style="fill:#25d9b7; stroke:none;" d="M324 400L325 401L324 400M343 400L344 401L343 400z"/>
<path style="fill:#fb4f42; stroke:none;" d="M461 400L462 401L461 400M267 401L268 402L267 401M417 401L418 402L417 401M464 401L465 402L464 401M468 402L469 403L468 402z"/>
<path style="fill:#25d9b7; stroke:none;" d="M274 403L275 404L274 403z"/>
<path style="fill:#fcd769; stroke:none;" d="M322 403L323 404L322 403M345 403L346 404L345 403z"/>
<path style="fill:#fb4f42; stroke:none;" d="M410 403L411 404L410 403M472 403L473 404L472 403M278 404L279 405L278 404z"/>
<path style="fill:#25d9b7; stroke:none;" d="M279 404L280 405L279 404M291 404L292 405L291 404z"/>
<path style="fill:#fb4f42; stroke:none;" d="M292 404L292 405L321 405L292 404M347 404L347 405L385 405C374.964 400.789 357.911 404 347 404z"/>
<path style="fill:#25d9b7; stroke:none;" d="M385 404L386 405L385 404M397 404L398 405L397 404z"/>
<path style="fill:#fb4f42; stroke:none;" d="M398 404L398 405L401 405L398 404z"/>
<path style="fill:#25d9b7; stroke:none;" d="M403 404L404 405L403 404z"/>
<path style="fill:#fb4f42; stroke:none;" d="M404 404L404 405L407 405L404 404M476 404L477 405L476 404z"/>
<path style="fill:#25d9b7; stroke:none;" d="M489 405L490 406L489 405z"/>
<path style="fill:#fb4f42; stroke:none;" d="M272 406L273 407L272 406M324 406L325 407L324 406M343 406L344 407L343 406M482 406L483 407L482 406M275 407L276 408L275 407M322 407L323 408L322 407M345 407L346 408L345 407M409 407L410 408L409 407M484 407L485 408L484 407M223 410L224 411L223 410M221 413L222 414L221 413z"/>
<path style="fill:#0d1019; stroke:none;" d="M286 418L286 421L305 421L305 418L286 418M340 418L340 421L358 421L358 418L340 418z"/>
<path style="fill:#fb4f42; stroke:none;" d="M490 418L491 419L490 418M218 419L219 420L218 419M305 419L306 420L305 419M339 419L340 420L339 419M217 421L218 422L217 421z"/>
<path style="fill:#25d9b7; stroke:none;" d="M492 421L493 422L492 421z"/>
<path style="fill:#fcd769; stroke:none;" d="M493 421L493 422L497 422L493 421z"/>
<path style="fill:#25d9b7; stroke:none;" d="M497 421L498 422L497 421z"/>
<path style="fill:#fcd769; stroke:none;" d="M490 422L487 427L488 427L490 422z"/>
<path style="fill:#e6eef3; stroke:none;" d="M500 436L498 422C483.075 422.176 486.629 435.723 500 436z"/>
<path style="fill:#fb4f42; stroke:none;" d="M484 423L485 424L484 423z"/>
<path style="fill:#fcd769; stroke:none;" d="M498.333 423.667L498.667 424.333L498.333 423.667z"/>
<path style="fill:#fb4f42; stroke:none;" d="M216 424L217 425L216 424M483 425L484 426L483 425z"/>
<path style="fill:#25d9b7; stroke:none;" d="M499 426L500 427L499 426z"/>
<path style="fill:#fcd769; stroke:none;" d="M499.333 427.667L499.667 428.333L499.333 427.667z"/>
<path style="fill:#fb4f42; stroke:none;" d="M486 428L487 429L486 428M215.333 429.667L215.667 430.333L215.333 429.667M483 431L484 432L483 431z"/>
<path style="fill:#fcd769; stroke:none;" d="M487 431L488 432L487 431z"/>
<path style="fill:#25d9b7; stroke:none;" d="M500 431L500 434L501 434L500 431M488 433L489 434L488 433M489 434L490 435L489 434z"/>
<path style="fill:#fcd769; stroke:none;" d="M500 434L501 435L500 434z"/>
<path style="fill:#fb4f42; stroke:none;" d="M288 439L289 439L289 436L292 436L292 439C292.952 434.81 289.11 435.659 288 439M297 435L297 439L298 439L298 436L301 436L301 439C301.688 435.954 299.758 435.451 297 435M306 435L306 436L310 439C310.688 435.954 308.758 435.451 306 435M315 435L315 436L319 439C319.688 435.954 317.758 435.451 315 435M324 435L324 436L328 439C328.688 435.954 326.758 435.451 324 435M333 435L333 436L337 439C337.688 435.954 335.758 435.451 333 435M342 435L342 436L346 439C346.688 435.954 344.758 435.451 342 435M351 435L351 436L355 439C355.688 435.954 353.758 435.451 351 435M360 435L360 436L364 436L360 435M369 435L369 436L373 436L369 435M378 435L378 436L382 436L378 435M387 435L387 436L391 436L387 435M396 435L396 436L400 436L396 435M405 435L405 436L409 436L405 435M414 435L414 436L418 436L414 435M423 435L423 436L427 436L423 435M432 435L432 436L436 436L432 435M485 435L486 436L485 435z"/>
<path style="fill:#fcd769; stroke:none;" d="M491 435L491 436L494 436L491 435z"/>
<path style="fill:#25d9b7; stroke:none;" d="M500 435L501 436L500 435z"/>
<path style="fill:#0d1019; stroke:none;" d="M289 436L286 442L290 442L292 436L289 436M298 436L295 442L299 442L301 436L298 436M306 436L304 442L308 442L310 436L306 436M315 436L313 442L317 442L319 436L315 436M324 436L322 442L326 442L328 436L324 436M333 436L331 442L335 442L337 436L333 436M342 436L340 442L344 442L346 436L342 436M351 436L349 442L353 442L355 436L351 436M360 436L358 442L362 442L364 436L360 436M369 436L367 442L371 442L373 436L369 436M378 436L376 442L380 442L382 436L378 436M387 436L385 442L389 442L391 436L387 436M396 436L394 442L398 442L400 436L396 436M405 436L403 442L407 442L409 436L405 436M414 436L412 442L416 442L418 436L414 436M423 436L421 442L425 442L427 436L423 436M432 436L430 442L434 442L436 436L432 436z"/>
<path style="fill:#fb4f42; stroke:none;" d="M486 436L487 437L486 436M487 437L488 438L487 437M260 438L261 439L260 438M274 438L275 439L274 438M448 438L449 439L448 438M463 438L464 439L463 438M489 438L490 439L489 438M278 439L279 440L278 439M445 439L446 440L445 439M466 439L467 440L466 439M492 439L492 440L500 440L492 439M254 440L255 441L254 440M442 440L443 441L442 440M252 441L253 442L252 441M267.667 441.333L268.333 441.667L267.667 441.333M440 441L441 442L440 441M455.667 441.333L456.333 441.667L455.667 441.333M471 441L472 442L471 441M250 442L251 443L250 442M260 442L261 443L260 442z"/>
<path style="fill:#25d9b7; stroke:none;" d="M291 453C288.183 453 286.701 448.209 284 446.333C277.911 442.105 268.264 440.618 261 442.333C242.621 446.673 227.893 477.375 247 490.667C255.284 496.429 267.005 493.275 275 489.167C280.309 486.438 283.671 483.261 286.667 478C291.467 469.569 289.173 461.678 291 453z"/>
<path style="fill:#fb4f42; stroke:none;" d="M274 442L275 443L274 442M284 442L285 443L284 442M286 442L286 443L290 443L286 442M295 442L295 443L299 443L295 442M304 442L304 443L308 443L304 442M313 442L313 443L317 443L313 442M322 442L322 443L326 443L322 442M331 442L331 443L335 443L331 442M340 442L340 443L344 443L340 442M349 442L349 443L353 443L349 442M358 442L358 443L362 443L358 442M367 442L367 443L371 443L367 442M376 442L376 443L380 443L376 442M385 442L385 443L389 443L385 442M394 442L394 443L398 443L394 442M403 442L403 443L407 443L403 442M412 442L412 443L416 443L412 442M421 442L421 443L425 443L421 442M430 442L430 443L434 443L430 442M448 442L449 443L448 442z"/>
<path style="fill:#25d9b7; stroke:none;" d="M449 442.529C420.193 449.142 420.023 499.853 453 493.066C486.127 486.247 487.632 433.661 449 442.529z"/>
<path style="fill:#fb4f42; stroke:none;" d="M463 442L464 443L463 442M257 443L258 444L257 443M437 443L438 444L437 443M445 443L446 444L445 443M466 443L467 444L466 443M474 443L475 444L474 443M280 444L281 445L280 444M287 444L288 445L287 444M443 444L444 445L443 444M468 444L469 445L468 444M246 445L247 446L246 445M441 445L442 446L441 445M470 445L471 446L470 445M245 446L246 447L245 446M251 446L252 447L251 446M433 446L434 447L433 446M500 446L500 456L501 456L500 446M432 447L433 448L432 447M438 447L439 448L438 447M473 447L474 448L473 447M479 447L480 448L479 447M243 448L244 449L243 448M286 448L287 449L286 448M242 449L243 450L242 449M287 449L288 450L287 449M475 449L476 450L475 449M288 450L289 451L288 450M293 450L294 451L293 450M289 451L289 454L290 454L289 451M294 451L295 452L294 451M477 451L478 452L477 451M428 452L429 453L428 452M433 452L434 453L433 452M478 452C478.116 457.611 479.547 463.004 478.136 468.576C473.061 488.617 455.219 494.301 437 492L437 493C448.095 500.249 456.792 498.487 469 497C481.468 485.144 492.99 468.011 478 452M483 452L484 453L483 452M432 453L433 454L432 453M243 454L244 455L243 454M290 454C291.592 480.356 275.026 495.461 249 492L249 493C261.198 499.943 276.438 502.595 287.62 491.547C295.827 483.439 302.334 461.537 290 454M484 454L485 455L484 454M238 455L239 456L238 455M242 456L243 457L242 456M485 456L486 457L485 456M215 457L216 458L215 457M237 457L238 458L237 457M265 457L266 458L265 457z"/>
<path style="fill:#0d1019; stroke:none;" d="M266 457.569C249.323 459.784 253.062 485.731 270 483.086C286.297 480.542 282.101 455.432 266 457.569z"/>
<path style="fill:#fb4f42; stroke:none;" d="M269.667 457.333L270.333 457.667L269.667 457.333M453.667 457.333L454.333 457.667L453.667 457.333z"/>
<path style="fill:#0d1019; stroke:none;" d="M455 457.642C438.315 459.03 440.462 484.76 457 483.358C473.63 481.949 471.541 456.266 455 457.642z"/>
<path style="fill:#fb4f42; stroke:none;" d="M457.667 457.333L458.333 457.667L457.667 457.333M241 458L242 459L241 458M273 458L274 459L273 458z"/>
<path style="fill:#25d9b7; stroke:none;" d="M293 458L294 459L293 458z"/>
<path style="fill:#fb4f42; stroke:none;" d="M425 458L426 459L425 458M450 458L451 459L450 458M461 458L462 459L461 458M486 458L487 459L486 458M260 459L261 460L260 459M298 459L299 460L298 459M463 459L464 460L463 459M499 459L500 460L499 459M236 460L237 461L236 460M240 460L241 461L240 460M276 460L277 461L276 460M447 460L448 461L447 460M464 460L465 461L464 460z"/>
<path style="fill:#25d9b7; stroke:none;" d="M265 461L266 462L265 461z"/>
<path style="fill:#e6eef3; stroke:none;" d="M266.004 461.666C255.439 463.857 258.009 481.013 268.999 479.102C280.675 477.072 277.464 459.289 266.004 461.666z"/>
<path style="fill:#fcd769; stroke:none;" d="M269 461L270 462L269 461z"/>
<path style="fill:#25d9b7; stroke:none;" d="M270 461L271 462L270 461z"/>
<path style="fill:#fb4f42; stroke:none;" d="M277 461L278 462L277 461M424 461L425 462L424 461M428 461L429 462L428 461z"/>
<path style="fill:#25d9b7; stroke:none;" d="M453 461L454 462L453 461z"/>
<path style="fill:#fcd769; stroke:none;" d="M454 461L455 462L454 461z"/>
<path style="fill:#e6eef3; stroke:none;" d="M455.001 461.718C443.553 463.06 445.559 480.622 456.999 479.282C468.447 477.94 466.441 460.378 455.001 461.718z"/>
<path style="fill:#fcd769; stroke:none;" d="M457 461L458 462L457 461z"/>
<path style="fill:#25d9b7; stroke:none;" d="M458 461L459 462L458 461z"/>
<path style="fill:#fb4f42; stroke:none;" d="M465 461L466 462L465 461M487 461L488 462L487 461z"/>
<path style="fill:#25d9b7; stroke:none;" d="M272 462L273 463L272 462z"/>
<path style="fill:#fb4f42; stroke:none;" d="M299 462L300 463L299 462M445 462L446 463L445 462z"/>
<path style="fill:#fcd769; stroke:none;" d="M451 462L452 463L451 462M460 462L461 463L460 462z"/>
<path style="fill:#fb4f42; stroke:none;" d="M466 462L467 463L466 462M235.333 463.667L235.667 464.333L235.333 463.667M239 463L240 464L239 463M256 463L257 464L256 463z"/>
<path style="fill:#25d9b7; stroke:none;" d="M261 463L262 464L261 463M295 463L296 464L295 463z"/>
<path style="fill:#fb4f42; stroke:none;" d="M218 464L219 465L218 464z"/>
<path style="fill:#25d9b7; stroke:none;" d="M260 464L261 465L260 464z"/>
<path style="fill:#fb4f42; stroke:none;" d="M255 465L256 466L255 465z"/>
<path style="fill:#25d9b7; stroke:none;" d="M275 465L276 466L275 465z"/>
<path style="fill:#fb4f42; stroke:none;" d="M423.333 465.667L423.667 466.333L423.333 465.667M427 465L428 466L427 465M488 465L488 468L489 468L488 465M496 465L497 466L496 465z"/>
<path style="fill:#fcd769; stroke:none;" d="M259 466L260 467L259 466z"/>
<path style="fill:#fb4f42; stroke:none;" d="M443 466L444 467L443 466z"/>
<path style="fill:#25d9b7; stroke:none;" d="M447 466L448 467L447 466M464 466L465 467L464 466z"/>
<path style="fill:#fb4f42; stroke:none;" d="M468 466L469 467L468 466M495 466L496 467L495 466z"/>
<path style="fill:#25d9b7; stroke:none;" d="M276 467L277 468L276 467z"/>
<path style="fill:#fb4f42; stroke:none;" d="M280 467L281 468L280 467M494 467L495 468L494 467M254 468L254 472L255 472L254 468z"/>
<path style="fill:#25d9b7; stroke:none;" d="M258.333 468.667L258.667 469.333L258.333 468.667z"/>
<path style="fill:#fb4f42; stroke:none;" d="M300 468L300 473L301 473L300 468z"/>
<path style="fill:#25d9b7; stroke:none;" d="M484 468L485 469L484 468z"/>
<path style="fill:#fb4f42; stroke:none;" d="M493 468L494 469L493 468M223 469L224 470L223 469z"/>
<path style="fill:#fcd769; stroke:none;" d="M258 470L259 471L258 470z"/>
<path style="fill:#fb4f42; stroke:none;" d="M446 470L447 471L446 470M490 470L491 471L490 470M227 471L228 472L227 471z"/>
<path style="fill:#25d9b7; stroke:none;" d="M258.333 471.667L258.667 472.333L258.333 471.667z"/>
<path style="fill:#fb4f42; stroke:none;" d="M230 472L231 473L230 472z"/>
<path style="fill:#25d9b7; stroke:none;" d="M484 472L485 473L484 472M13 473L13 476L14 476L13 473M276 473L277 474L276 473z"/>
<path style="fill:#fb4f42; stroke:none;" d="M280 473L281 474L280 473z"/>
<path style="fill:#fcd769; stroke:none;" d="M259 474L260 475L259 474z"/>
<path style="fill:#fb4f42; stroke:none;" d="M427.333 474.667L427.667 475.333L427.333 474.667M443 474L444 475L443 474z"/>
<path style="fill:#25d9b7; stroke:none;" d="M447 474L448 475L447 474z"/>
<path style="fill:#fb4f42; stroke:none;" d="M464 474L465 475L464 474M468 474L469 475L468 474M255 475L256 476L255 475z"/>
<path style="fill:#25d9b7; stroke:none;" d="M275 475L276 476L275 475M24 476L25 477L24 476z"/>
<path style="fill:#fb4f42; stroke:none;" d="M260 476L261 477L260 476z"/>
<path style="fill:#fcd769; stroke:none;" d="M274 476L275 477L274 476z"/>
<path style="fill:#fb4f42; stroke:none;" d="M279 476L280 477L279 476M256 477L257 478L256 477z"/>
<path style="fill:#25d9b7; stroke:none;" d="M261 477L262 478L261 477z"/>
<path style="fill:#fcd769; stroke:none;" d="M273 477L274 478L273 477z"/>
<path style="fill:#25d9b7; stroke:none;" d="M14.3333 478.667L14.6667 479.333L14.3333 478.667M25 478L26 479L25 478M272 478L273 479L272 478M423 478L424 479L423 478z"/>
<path style="fill:#fb4f42; stroke:none;" d="M445 478L446 479L445 478z"/>
<path style="fill:#25d9b7; stroke:none;" d="M451 478L452 479L451 478M460 478L461 479L460 478z"/>
<path style="fill:#fb4f42; stroke:none;" d="M466 478L467 479L466 478z"/>
<path style="fill:#25d9b7; stroke:none;" d="M265 479L266 480L265 479z"/>
<path style="fill:#fcd769; stroke:none;" d="M266 479L267 480L266 479M268 479L269 480L268 479z"/>
<path style="fill:#25d9b7; stroke:none;" d="M269 479L270 480L269 479z"/>
<path style="fill:#fb4f42; stroke:none;" d="M428 479L429 480L428 479M446 479L447 480L446 479z"/>
<path style="fill:#25d9b7; stroke:none;" d="M453 479L454 480L453 479z"/>
<path style="fill:#fcd769; stroke:none;" d="M454 479L455 480L454 479M457 479L458 480L457 479z"/>
<path style="fill:#25d9b7; stroke:none;" d="M458 479L459 480L458 479z"/>
<path style="fill:#fb4f42; stroke:none;" d="M465 479L466 480L465 479z"/>
<path style="fill:#25d9b7; stroke:none;" d="M26 480L27 481L26 480z"/>
<path style="fill:#fb4f42; stroke:none;" d="M447 480L448 481L447 480M464 480L465 481L464 480z"/>
<path style="fill:#25d9b7; stroke:none;" d="M15 481L16 482L15 481z"/>
<path style="fill:#fb4f42; stroke:none;" d="M260 481L261 482L260 481M448 481L449 482L448 481M262 482L263 483L262 482z"/>
<path style="fill:#25d9b7; stroke:none;" d="M293 482L294 483L293 482z"/>
<path style="fill:#fb4f42; stroke:none;" d="M450 482L451 483L450 482M461 482L462 483L461 482z"/>
<path style="fill:#25d9b7; stroke:none;" d="M16 483L17 484L16 483z"/>
<path style="fill:#fb4f42; stroke:none;" d="M265.667 483.333L266.333 483.667L265.667 483.333M268 483L268 484L271 484L268 483M453.667 483.333L454.333 483.667L453.667 483.333M457.667 483.333L458.333 483.667L457.667 483.333M242 484L243 485L242 484z"/>
<path style="fill:#25d9b7; stroke:none;" d="M292 484L293 485L292 484M17 485L18 486L17 485M31 485L32 486L31 485z"/>
<path style="fill:#fb4f42; stroke:none;" d="M431 485L432 486L431 485z"/>
<path style="fill:#25d9b7; stroke:none;" d="M34 487L35 488L34 487M290 487L291 488L290 487M19 488L20 489L19 488M37.6667 488.333L38.3333 488.667L37.6667 488.333M20 489L21 490L20 489M229 489L229 490L241 490L229 489M21 490L22 491L21 490M241 490L242 491L241 490z"/>
<path style="fill:#fb4f42; stroke:none;" d="M435 490L436 491L435 490z"/>
<path style="fill:#25d9b7; stroke:none;" d="M476 490L477 491L476 490M22 491L23 492L22 491M242 491L243 492L242 491z"/>
<path style="fill:#fb4f42; stroke:none;" d="M248 491L249 492L248 491M436 491L437 492L436 491z"/>
<path style="fill:#25d9b7; stroke:none;" d="M23 492L24 493L23 492M24 493L25 494L24 493M252 494L253 495L252 494M27 495L28 496L27 495M246 495L247 496L246 495M469 495L470 496L469 495M29 496L30 497L29 496M247 496L248 497L247 496M467 496L468 497L467 496M31 497L32 498L31 497M248 497L249 498L248 497M34.6667 498.333L35.3333 498.667L34.6667 498.333M38 499L38 500L252 500L235 499L193 499L38 499M450 498L451 499L450 498M461 498L462 499L461 498z"/>
</svg>
