<?xml version="1.0" standalone="no"?>
<!DOCTYPE svg PUBLIC "-//W3C//DTD SVG 20010904//EN"
 "http://www.w3.org/TR/2001/REC-SVG-20010904/DTD/svg10.dtd">
<svg version="1.0" xmlns="http://www.w3.org/2000/svg"
 width="512.000000pt" height="512.000000pt" viewBox="0 0 512.000000 512.000000"
 preserveAspectRatio="xMidYMid meet">

<g transform="translate(0.000000,512.000000) scale(0.100000,-0.100000)"
fill="#000000" stroke="none">
<path d="M312 5011 c-76 -26 -140 -85 -182 -166 l-35 -68 0 -2216 0 -2216 33
-67 c29 -60 99 -138 124 -138 4 0 8 -4 8 -10 0 -5 -20 -10 -45 -10 -33 0 -45
-4 -45 -15 0 -13 271 -15 2380 -15 2109 0 2380 2 2380 15 0 12 -18 15 -105 15
l-105 0 64 63 c54 53 68 73 82 124 16 54 23 63 61 83 52 28 100 96 109 155 3
24 4 105 2 181 -3 115 -7 147 -25 186 -27 59 -95 133 -148 161 -22 11 -143 48
-270 82 l-230 60 -127 160 c-71 88 -146 181 -168 207 -51 60 -142 106 -227
114 l-63 7 0 66 c0 36 -5 82 -10 102 -19 68 -23 69 -365 69 -200 0 -313 -4
-327 -11 -31 -17 -48 -71 -48 -154 0 -58 -3 -75 -14 -75 -8 0 -21 -3 -30 -6
-15 -6 -16 130 -16 1492 0 999 -4 1521 -11 1564 -18 115 -82 200 -188 252
l-46 23 -1180 2 c-1121 2 -1183 2 -1233 -16z m2443 -41 c63 -31 121 -89 149
-149 l21 -46 3 -1546 2 -1546 -37 -12 c-21 -7 -44 -15 -50 -17 -10 -4 -13 321
-15 1543 -3 1548 -3 1548 -24 1588 -11 22 -40 54 -63 70 l-43 30 -176 0 -176
0 -8 -39 c-5 -22 -16 -49 -26 -59 -43 -48 -30 -47 -724 -47 -629 0 -654 1
-685 20 -35 21 -53 49 -63 95 l-6 30 -223 3 c-200 2 -226 1 -265 -17 -50 -22
-89 -69 -105 -126 -15 -57 -15 -4313 0 -4370 15 -56 54 -104 103 -126 39 -18
86 -19 1048 -19 l1006 0 58 -55 57 -56 -1079 3 c-1008 3 -1082 4 -1118 21 -66
29 -123 83 -153 145 l-28 57 0 2215 0 2215 28 57 c41 84 114 138 210 158 23 4
557 7 1187 7 l1145 -2 50 -25z m-1941 -155 c20 -52 62 -90 114 -105 51 -14
1273 -14 1324 0 53 15 94 53 114 106 l18 46 145 -4 c133 -3 149 -5 185 -27 24
-15 45 -39 56 -65 17 -39 18 -126 19 -1592 l2 -1550 -46 -33 c-59 -42 -109
-110 -181 -247 -58 -110 -59 -112 -109 -129 -87 -31 -128 -56 -192 -118 -117
-112 -159 -239 -151 -456 4 -92 9 -124 25 -156 37 -71 100 -116 179 -129 36
-6 41 -11 51 -47 l10 -39 -996 0 c-951 0 -998 1 -1031 19 -20 10 -44 36 -57
60 l-22 41 0 2173 c-1 2087 0 2175 18 2207 22 42 57 69 102 80 19 4 118 8 220
9 l186 1 17 -45z m2524 -2952 c2 -8 -5 -13 -17 -13 -17 0 -20 -7 -23 -57 -4
-81 -28 -85 -28 -4 0 58 -1 61 -25 61 -25 0 -32 10 -18 24 12 12 106 2 111
-11z m250 5 c-6 -18 -28 -21 -28 -4 0 9 7 16 16 16 9 0 14 -5 12 -12z m-170
-40 c7 -7 12 -31 12 -55 l0 -43 -44 0 c-66 0 -76 48 -13 68 l32 10 -32 1 c-31
1 -41 10 -26 24 11 11 58 8 71 -5z m62 -3 c15 -14 18 -14 30 0 7 8 16 15 21
15 14 0 10 -26 -6 -40 -12 -10 -12 -15 2 -36 19 -30 9 -44 -14 -21 -16 15 -18
15 -35 0 -25 -22 -34 -9 -15 21 14 21 14 26 2 36 -15 13 -21 40 -8 40 3 0 14
-7 23 -15z m108 -43 c2 -42 0 -52 -12 -52 -13 0 -16 12 -16 56 0 73 24 70 28
-4z m372 -158 c47 -26 80 -61 218 -235 l164 -204 231 -61 c251 -65 283 -78
340 -132 43 -42 46 -52 13 -52 -36 0 -84 -45 -92 -86 -14 -74 31 -122 123
-131 l56 -6 -6 -92 c-6 -105 -19 -137 -74 -185 l-37 -33 -13 61 c-7 34 -20 76
-29 93 -26 51 -95 119 -149 147 -44 24 -62 27 -145 27 -83 0 -101 -3 -145 -27
-61 -32 -130 -104 -156 -162 -10 -23 -21 -68 -25 -99 l-7 -57 -612 0 -612 0
-5 64 c-22 265 -361 383 -553 192 -52 -53 -86 -125 -93 -199 l-5 -59 -36 6
c-51 8 -111 54 -138 105 -21 40 -23 57 -23 175 0 152 15 224 63 305 59 99 179
187 284 209 37 8 39 11 106 145 75 152 131 219 227 271 99 54 107 55 610 53
l465 -2 55 -31z m1029 -746 c5 -18 13 -52 16 -75 l7 -43 -51 0 c-63 0 -91 23
-91 74 0 41 37 76 81 76 22 0 29 -6 38 -32z m-2184 -209 c71 -38 87 -64 92
-151 11 -173 -105 -310 -276 -325 -68 -6 -133 10 -162 40 -32 33 -60 102 -66
161 -7 64 15 136 57 194 76 106 237 142 355 81z m1847 15 c25 -8 63 -30 83
-47 31 -27 38 -40 44 -87 18 -148 -48 -274 -178 -333 -35 -17 -66 -22 -128
-22 -100 0 -125 15 -168 100 -111 221 111 470 347 389z m-396 -386 c13 -40 33
-68 81 -115 l63 -63 -782 0 -782 0 57 53 c49 46 75 87 100 160 6 16 45 17 626
17 l619 0 18 -52z"/>
<path d="M1284 4879 c-15 -25 22 -29 247 -27 213 3 234 5 237 21 3 16 -13 17
-237 17 -162 0 -242 -4 -247 -11z"/>
<path d="M1842 4873 c2 -12 13 -18 33 -18 20 0 31 6 33 18 3 14 -4 17 -33 17
-29 0 -36 -3 -33 -17z"/>
<path d="M1294 3830 c-335 -88 -529 -404 -458 -746 45 -218 201 -533 414 -835
38 -55 70 -103 70 -106 0 -15 113 -153 125 -153 7 0 31 26 52 58 22 31 70 99
107 150 37 51 115 168 173 259 296 464 361 771 222 1052 -126 254 -431 393
-705 321z m-29 -68 c-100 -52 -211 -165 -258 -262 -64 -129 -82 -269 -53 -407
48 -225 193 -514 427 -851 l100 -143 -19 -24 -20 -25 -105 148 c-254 354 -420
678 -466 910 -58 288 106 569 394 673 77 28 77 22 0 -19z m317 -184 c108 -50
175 -136 198 -254 20 -103 -11 -203 -88 -286 -68 -72 -128 -100 -230 -106 -63
-3 -93 0 -130 13 -110 42 -189 130 -218 244 -68 270 215 505 468 389z"/>
<path d="M3360 1760 c0 -5 6 -10 14 -10 8 0 18 5 21 10 3 6 -3 10 -14 10 -12
0 -21 -4 -21 -10z"/>
<path d="M2936 1549 c-155 -53 -260 -188 -272 -346 -6 -79 5 -106 55 -140 33
-22 41 -23 273 -23 l239 0 24 25 25 24 0 219 c0 276 9 262 -166 262 -93 -1
-132 -5 -178 -21z m296 -26 c16 -15 18 -35 18 -210 0 -115 -4 -202 -10 -214
-10 -18 -24 -19 -254 -19 -239 0 -243 0 -263 23 -31 34 -34 54 -22 120 27 149
129 263 269 301 79 21 238 21 262 -1z"/>
<path d="M3421 1544 c-20 -25 -21 -39 -21 -241 0 -214 0 -214 25 -238 l24 -25
316 0 c350 0 369 3 405 62 22 37 26 98 9 131 -7 11 -54 78 -105 147 -136 184
-145 188 -426 189 l-207 1 -20 -26z m445 -19 c27 -8 63 -27 80 -43 31 -26 177
-222 203 -271 18 -33 6 -86 -26 -111 -25 -19 -39 -20 -349 -20 -309 0 -324 1
-334 19 -6 12 -10 99 -10 212 0 165 2 195 17 211 14 16 34 18 193 18 129 0
190 -4 226 -15z"/>
<path d="M2860 925 c0 -13 14 -15 98 -13 126 4 124 22 -3 26 -81 2 -95 0 -95
-13z"/>
<path d="M3397 934 c-17 -17 11 -24 94 -24 72 0 89 3 89 15 0 12 -16 15 -88
15 -49 0 -92 -3 -95 -6z"/>
<path d="M2883 751 c-3 -12 -9 -21 -14 -21 -5 0 -9 -9 -9 -20 0 -13 7 -20 20
-20 13 0 20 7 20 20 0 12 7 20 16 20 22 0 14 34 -9 38 -12 3 -20 -4 -24 -17z"/>
<path d="M2973 751 c-3 -12 -9 -21 -14 -21 -5 0 -9 -9 -9 -20 0 -13 7 -20 20
-20 13 0 20 7 20 20 0 12 7 20 16 20 22 0 14 34 -9 38 -12 3 -20 -4 -24 -17z"/>
<path d="M3063 751 c-3 -12 -9 -21 -14 -21 -5 0 -9 -9 -9 -20 0 -13 7 -20 20
-20 13 0 20 7 20 20 0 12 7 20 16 20 22 0 14 34 -9 38 -12 3 -20 -4 -24 -17z"/>
<path d="M3153 750 c-3 -11 -9 -20 -14 -20 -5 0 -9 -9 -9 -20 0 -13 7 -20 20
-20 13 0 20 7 20 20 0 11 5 20 10 20 6 0 10 9 10 20 0 12 -7 20 -16 20 -9 0
-18 -9 -21 -20z"/>
<path d="M3243 750 c-3 -11 -9 -20 -14 -20 -5 0 -9 -9 -9 -20 0 -13 7 -20 20
-20 13 0 20 7 20 20 0 11 5 20 10 20 6 0 10 9 10 20 0 12 -7 20 -16 20 -9 0
-18 -9 -21 -20z"/>
<path d="M3333 750 c-3 -11 -9 -20 -14 -20 -5 0 -9 -9 -9 -20 0 -13 7 -20 20
-20 13 0 20 7 20 20 0 11 5 20 10 20 6 0 10 9 10 20 0 12 -7 20 -16 20 -9 0
-18 -9 -21 -20z"/>
<path d="M3420 750 c0 -11 -4 -20 -10 -20 -5 0 -10 -9 -10 -20 0 -13 7 -20 20
-20 13 0 20 7 20 20 0 11 5 20 10 20 6 0 10 9 10 20 0 13 -7 20 -20 20 -13 0
-20 -7 -20 -20z"/>
<path d="M3510 750 c0 -11 -4 -20 -10 -20 -5 0 -10 -9 -10 -20 0 -13 7 -20 20
-20 13 0 20 7 20 20 0 11 5 20 10 20 6 0 10 9 10 20 0 13 -7 20 -20 20 -13 0
-20 -7 -20 -20z"/>
<path d="M3600 750 c0 -11 -4 -20 -10 -20 -5 0 -10 -9 -10 -20 0 -13 7 -20 20
-20 13 0 20 7 20 20 0 11 5 20 10 20 6 0 10 9 10 20 0 13 -7 20 -20 20 -13 0
-20 -7 -20 -20z"/>
<path d="M3690 750 c0 -11 -4 -20 -10 -20 -5 0 -10 -9 -10 -20 0 -13 7 -20 20
-20 13 0 20 7 20 20 0 11 5 20 10 20 6 0 10 9 10 20 0 13 -7 20 -20 20 -13 0
-20 -7 -20 -20z"/>
<path d="M3780 750 c0 -11 -4 -20 -10 -20 -5 0 -10 -9 -10 -20 0 -13 7 -20 20
-20 13 0 20 7 20 20 0 11 5 20 10 20 6 0 10 9 10 20 0 13 -7 20 -20 20 -13 0
-20 -7 -20 -20z"/>
<path d="M3870 750 c0 -11 -4 -20 -10 -20 -5 0 -10 -9 -10 -20 0 -13 7 -20 20
-20 13 0 20 7 20 20 0 11 5 20 10 20 6 0 10 9 10 20 0 13 -7 20 -20 20 -13 0
-20 -7 -20 -20z"/>
<path d="M3960 750 c0 -11 -4 -20 -10 -20 -5 0 -10 -9 -10 -20 0 -13 7 -20 20
-20 13 0 20 7 20 20 0 11 5 20 10 20 6 0 10 9 10 20 0 13 -7 20 -20 20 -13 0
-20 -7 -20 -20z"/>
<path d="M4050 750 c0 -11 -4 -20 -10 -20 -5 0 -10 -9 -10 -20 0 -13 7 -20 20
-20 13 0 20 7 20 20 0 11 5 20 10 20 6 0 10 9 10 20 0 13 -7 20 -20 20 -13 0
-20 -7 -20 -20z"/>
<path d="M4140 750 c0 -11 -4 -20 -10 -20 -5 0 -10 -9 -10 -20 0 -13 7 -20 20
-20 13 0 20 7 20 20 0 11 5 20 10 20 6 0 10 9 10 20 0 13 -7 20 -20 20 -13 0
-20 -7 -20 -20z"/>
<path d="M4230 750 c0 -11 -4 -20 -10 -20 -5 0 -10 -9 -10 -20 0 -13 7 -20 20
-20 13 0 20 7 20 20 0 11 5 20 10 20 6 0 10 9 10 20 0 13 -7 20 -20 20 -13 0
-20 -7 -20 -20z"/>
<path d="M4320 750 c0 -11 -4 -20 -10 -20 -5 0 -10 -9 -10 -20 0 -13 7 -20 20
-20 13 0 20 7 20 20 0 11 5 20 10 20 6 0 10 9 10 20 0 13 -7 20 -20 20 -13 0
-20 -7 -20 -20z"/>
<path d="M2630 543 c-23 -9 -60 -45 -76 -75 -30 -57 -5 -129 58 -168 87 -53
198 11 198 115 0 91 -95 159 -180 128z m118 -68 c23 -28 29 -74 12 -106 -12
-22 -60 -49 -89 -49 -27 0 -77 45 -85 75 -8 32 18 89 47 104 34 17 89 5 115
-24z"/>
<path d="M4493 530 c-52 -31 -67 -65 -64 -142 1 -38 46 -86 92 -99 52 -16 109
1 143 42 34 40 37 123 5 163 -44 56 -118 72 -176 36z m128 -49 c60 -61 23
-156 -61 -156 -53 0 -90 38 -90 91 0 47 45 94 90 94 22 0 41 -9 61 -29z"/>
<path d="M80 105 c0 -8 9 -15 20 -15 11 0 20 7 20 15 0 8 -9 15 -20 15 -11 0
-20 -7 -20 -15z"/>
<path d="M5000 105 c0 -8 9 -15 20 -15 11 0 20 7 20 15 0 8 -9 15 -20 15 -11
0 -20 -7 -20 -15z"/>
</g>
</svg>
