<?xml version="1.0" standalone="yes"?>
<svg xmlns="http://www.w3.org/2000/svg" width="512" height="512">
<path style="fill:#1c1d21; stroke:none;" d="M0 0L0 512L29 512L29 511C11.941 502.144 18 473.138 18 457C18 427.421 14.4335 395.309 18.2894 366C19.3372 358.035 26.7125 353.968 27.8519 346.961C31.2603 325.998 21.6841 299.102 52 295L52 294C36.0566 289.264 33.1906 266.809 45.0432 256.214C53.4232 248.723 68.7051 250.089 79 252C84.5486 228.016 94.5464 204.361 102.333 181C105.918 170.247 108.273 158.974 120 154.468C135.109 148.663 158.859 151.026 175 151C180.784 150.991 192.451 151.953 197.57 149.397C200.937 147.715 201.316 141.241 202.127 138C204.277 129.398 205.24 112.575 212.225 106.573C217.776 101.801 229.166 104 236 104L297 104C297 56.8195 328.344 3.2959 381 1L347 0L269 0L0 0z"/>
<path style="fill:#fa5733; stroke:none;" d="M399 237C405.616 232.339 415.952 222.772 418.813 215C420.845 209.48 416.886 205.593 420.918 200.001C428.657 189.268 442.566 185.763 453 178.254C467.38 167.905 479.156 153.459 485.799 137C491.842 122.029 494.777 106.086 493.169 90C491.461 72.9138 486.788 57.4918 477.304 43C431.993 -26.2354 320.899 -7.67169 299.884 72C296.856 83.4823 296.19 95.2298 297.718 107C300.418 127.786 307.168 145.667 320.615 162C333.195 177.28 351.154 181.528 364.961 194.185C378.232 206.352 386.066 224.066 399 237z"/>
<path style="fill:#1c1d21; stroke:none;" d="M409 0L409 1C482.29 4.15527 513.772 97.9161 476.642 153C468.494 165.087 457.449 175.278 445 182.796C436.086 188.18 423.644 191.565 419.154 202C417.099 206.776 420.147 212.442 421.667 217C425.513 228.54 430.258 240.148 433 252C442.432 250.249 456.711 248.846 464.996 254.652C479.42 264.76 476.097 286.812 461 294L461 295C490.37 301.143 480.663 325.526 484.148 346.961C485.287 353.968 492.663 358.035 493.711 366C497.566 395.309 494 427.421 494 457C494 473.078 500.037 502.136 483 511L483 512L512 512L512 0L409 0z"/>
<path style="fill:#c9c9d7; stroke:none;" d="M389 48.4391C379.149 49.9777 369.614 53.7338 362.004 60.3009C326.066 91.3121 353.452 154.399 401 147.572C409.68 146.325 417.916 143.508 425 138.239C464.407 108.928 439.114 40.6122 389 48.4391z"/>
<path style="fill:#fbc73d; stroke:none;" d="M401 48L402 49L401 48M383 49L384 50L383 49M406 49L407 50L406 49M410 50L411 51L410 50M419 54L420 55L419 54M353 70L354 71L353 70M345 92L346 93L345 92M345 103L346 104L345 103z"/>
<path style="fill:#c9c9d7; stroke:none;" d="M199 150L312 150C303.97 134.739 300.123 120.811 297 104L235 104C228.461 104 216.552 101.701 211.419 106.573C208.019 109.8 207.456 115.668 206.373 120C203.88 129.975 201.078 139.931 199 150z"/>
<path style="fill:#fbc73d; stroke:none;" d="M297.333 105.667L297.667 106.333L297.333 105.667M346 109L347 110L346 109z"/>
<path style="fill:#7d8493; stroke:none;" d="M226 119C226 122.704 223.845 142.364 229 142.364C234.155 142.364 232 122.704 232 119C234.406 118.921 242.324 116.399 236.677 113.603C233.437 111.997 227.538 112.863 224.005 113.019C215.401 113.399 219.512 118.923 226 119M254 137L255 143C265.365 141.807 257.435 127.408 255.343 121C254.416 118.16 253.601 113.857 249.958 113.466C243.029 112.722 240.617 129.16 239.295 134C238.692 136.205 237.195 140.212 239.589 141.914C241.096 142.985 250.302 137.013 254 137M273 133C274.026 134.551 284.888 148.764 283.98 138.941C283.604 134.875 279.103 132.225 279.159 128C279.218 123.56 283.653 119.229 285 115C278.126 111.887 276.365 117.899 273 123C272.01 120.882 262.462 107.954 262.828 117.059C262.99 121.101 267.364 123.843 267.364 128C267.364 132.423 262.341 135.46 262.596 139.851C263.08 148.189 272.147 134.825 273 133M289.414 114.137C284.741 116.793 286.564 133.315 287.109 137.981C287.382 140.321 288.699 143.58 291.726 142.338C296.259 140.479 294.336 122.292 293.941 118.044C293.729 115.751 292.337 112.476 289.414 114.137z"/>
<path style="fill:#fbc73d; stroke:none;" d="M298.333 113.667L298.667 114.333L298.333 113.667M442 113L443 114L442 113M299 119L300 120L299 119M350 120L351 121L350 120z"/>
<path style="fill:#c9c9d7; stroke:none;" d="M249 122L247 132L252 132L249 122z"/>
<path style="fill:#fbc73d; stroke:none;" d="M300 123L301 124L300 123M304 135L305 136L304 135M305 137L306 138L305 137M410 145L411 146L410 145M310 147L311 148L310 147M41 443C41 435.518 38.6014 423.187 44.3943 417.394C49.5956 412.193 59.3191 414 66 414L122 414L380 414L443 414C450.274 414 461.958 411.747 467.606 417.394C473.399 423.187 471 435.518 471 443C477.091 441.897 481.945 438.26 483.467 432C487.35 416.029 484 395.438 484 379L484 333C484 325.756 485.41 316.792 482.467 310C479.157 302.362 472.057 297.08 464 295.464C458.865 294.434 450.428 294.94 446.702 290.686C442.035 285.357 440.55 274.649 438.333 268C432.345 250.035 425.265 231.437 421 213L420 213L400 237L399 237L386 222L385 222L406 286C380.009 278.102 348.939 278.755 322 276.91C273.075 273.56 223.868 274.485 175 277.91C152.868 279.462 127.316 279.523 106 286C113.609 262.614 121.556 239.331 129.333 216C132.471 206.586 134.136 193.112 142.094 186.394C152.978 177.207 175.685 182.097 189 180.83C239.803 175.996 291.129 181 342 181C336.013 174.444 328.212 169.806 322.289 163C318.993 159.212 315.745 152.527 310.91 150.603C299.032 145.878 277.806 150 265 150C229.21 150 191.485 146.916 156 151.576C142.854 153.302 124.227 148.993 113.093 157.638C103.766 164.881 101.25 183.25 97.6667 194C91.6913 211.926 84.8176 229.799 79.7454 248C76.1037 261.068 73.0095 277.007 66.4421 288.941C63.129 294.962 53.9095 294.279 48 295.464C39.9427 297.08 32.8434 302.362 29.5332 310C25.5325 319.231 28 333.091 28 343L28 415C28 426.502 26.5165 440.377 41 443z"/>
<path style="fill:#c9c9d7; stroke:none;" d="M228 179L228 180L234 180L228 179z"/>
<path style="fill:#7d8493; stroke:none;" d="M106 286C153.824 274.482 207.114 275 256 275C304.868 275 358.196 274.487 406 286C404.403 275.185 399.454 264.361 396 254C386.233 224.7 376.069 193.109 344 181.966C332.963 178.131 315.719 180 304 180C278.591 180 253.391 179.363 228 179.985C206.966 180.501 185.941 179.837 165 181.83C157.342 182.559 148.73 180.635 142.094 185.652C134.491 191.4 132.541 205.378 129.667 214C121.77 237.689 111.627 261.679 106 286z"/>
<path style="fill:#c9c9d7; stroke:none;" d="M278 179L278 180L283 180L278 179M191 180L192 181L191 180M319 180L320 181L319 180M135 196L136 197L135 196M134 199L135 200L134 199M133 202L134 203L133 202z"/>
<path style="fill:#fbc73d; stroke:none;" d="M417.333 204.667L417.667 205.333L417.333 204.667M418.333 207.667L418.667 208.333L418.333 207.667M419 210L419 213L420 213L419 210z"/>
<path style="fill:#7d8493; stroke:none;" d="M79 252C73.41 250.669 67.7157 250.991 62 251C42.775 251.031 28.4074 272.197 42.5324 288.895C47.312 294.545 60.6351 297.605 65.9144 290.686C69.561 285.906 70.7791 277.663 72.6667 272C74.8706 265.388 77.4285 258.793 79 252M433 252C434.572 258.793 437.129 265.388 439.333 272C441.221 277.663 442.439 285.906 446.086 290.686C451.516 297.803 464.552 294.462 469.468 288.815C483.865 272.276 468.987 251.03 450 251C444.284 250.991 438.59 250.669 433 252z"/>
<path style="fill:#c9c9d7; stroke:none;" d="M60 348.533C56.351 349.42 52.9359 351.61 51.179 355.015C49.3595 358.542 50 363.165 50 367C50 376.571 46.1559 395.325 56.0154 400.86C63.6092 405.124 75.6043 403 84 403L135 403C143.268 403 153.058 404.386 160.999 401.656C164.674 400.392 167.525 397.601 168.991 393.999C172.817 384.599 173.15 354.847 162.96 349.769C154.997 345.8 142.667 348 134 348L85 348C77.0771 348 67.7288 346.654 60 348.533M353 348.479C337.247 351.737 336.583 393.626 349.015 400.91C356.425 405.252 368.713 403 377 403L428 403C436.268 403 446.058 404.386 453.999 401.656C457.599 400.418 460.538 397.737 461.566 393.999C464.335 383.932 465.496 354.654 454.996 349.573C447.078 345.741 434.607 348 426 348C403.016 348 375.489 343.828 353 348.479z"/>
<path style="fill:#7d8493; stroke:none;" d="M27 350C15.6967 359.026 18 372.965 18 386L18 472C18 483.001 14.6889 500.549 24.1049 508.606C29.7352 513.423 38.1256 512 45 512L95 512C102.118 512 110.271 513.301 115.786 507.786C123.665 499.907 120 481.292 120 471L392 471C392 481.292 388.335 499.907 396.214 507.786C401.729 513.301 409.882 512 417 512L467 512C473.874 512 482.265 513.423 487.895 508.606C497.152 500.685 494 483.811 494 473L494 383C494 371.219 496.256 356.415 484 350L484 417C484 428.404 483.937 439.157 471 443L471 455L41 455L41 443C27.7682 440.33 28 427.753 28 417L28 371C28 364.58 29.4972 355.951 27 350M184.322 354.028C180.937 356.32 182.867 360.38 186.109 361.427C191.694 363.232 199.184 362 205 362L297 362C303.985 362 323.025 365.317 328.253 360.142C331.302 357.125 328.305 353.689 324.981 353.148C317.359 351.909 308.72 353 301 353L216 353C208.382 353 190.702 349.707 184.322 354.028z"/>
<path style="fill:#c9c9d7; stroke:none;" d="M21 355L22 356L21 355M256.667 361.333L257.333 361.667L256.667 361.333M259 361L259 362L263 362L259 361M264 361L264 362L279 362L264 361M282 361L283 362L282 361z"/>
<path style="fill:#7d8493; stroke:none;" d="M184.319 366.028C180.877 368.338 182.653 372.546 186.059 373.566C192.226 375.415 200.592 374 207 374L295 374C302.085 374 323.118 377.536 328.253 372.258C331.253 369.174 328.393 365.703 324.981 365.148C317.359 363.909 308.72 365 301 365L216 365C208.347 365 190.745 361.714 184.319 366.028M184.319 378.028C180.915 380.318 182.575 384.725 186.059 385.682C192.279 387.391 200.567 386 207 386L295 386C301.97 386 323.382 389.543 328.392 384.397C331.425 381.281 328.369 377.699 324.981 377.148C317.359 375.909 308.72 377 301 377L216 377C208.356 377 190.733 373.712 184.319 378.028M184.319 390.028C180.915 392.318 182.575 396.725 186.059 397.682C192.279 399.391 200.567 398 207 398L295 398C301.989 398 323.357 401.544 328.392 396.397C331.439 393.284 328.284 389.858 324.981 389.228C317.454 387.795 308.655 389 301 389L216 389C208.356 389 190.733 385.712 184.319 390.028z"/>
<path style="fill:#c9c9d7; stroke:none;" d="M41 455L471 455C471 445.189 475.869 418.493 463.985 414.653C455.322 411.853 443.063 414 434 414L370 414L156 414L80 414C70.5258 414 55.8256 411.236 47.0432 415.009C36.3454 419.605 41 445.431 41 455M28 432L29 433L28 432M35 441L36 442L35 441M37 442L38 443L37 442z"/>
<path style="fill:#1c1d21; stroke:none;" d="M120 471C120 484.577 124.272 503.575 110 511L110 512L402 512L402 511C387.728 503.575 392 484.577 392 471L120 471z"/>
<path style="fill:#c9c9d7; stroke:none;" d="M20 504L21 505L20 504z"/>
</svg>
